<svg xmlns="http://www.w3.org/2000/svg" width="134.907" height="134.907" viewBox="0 0 134.907 134.907">
  <g id="Video_Game-Setting-Keyboard-Online-Joystick" data-name="Video Game-Setting-Keyboard-Online-Joystick" transform="translate(0)">
    <path id="Path_8" data-name="Path 8" d="M9,38h4.5v4.5H9Z" transform="translate(6.739 42.944)" fill="#ff017b"/>
    <path id="Path_9" data-name="Path 9" d="M13,38h4.5v4.5H13Z" transform="translate(11.733 42.944)" fill="#ff017b"/>
    <path id="Path_10" data-name="Path 10" d="M17,38h4.5v4.5H17Z" transform="translate(16.727 42.944)" fill="#ff017b"/>
    <path id="Path_11" data-name="Path 11" d="M21,38h4.5v4.5H21Z" transform="translate(21.721 42.944)" fill="#ff017b"/>
    <path id="Path_12" data-name="Path 12" d="M25,38h4.5v4.5H25Z" transform="translate(26.715 42.944)" fill="#ff017b"/>
    <path id="Path_13" data-name="Path 13" d="M29,38h4.5v4.5H29Z" transform="translate(31.708 42.944)" fill="#ff017b"/>
    <path id="Path_14" data-name="Path 14" d="M33,38h4.5v4.5H33Z" transform="translate(36.702 42.944)" fill="#ff017b"/>
    <path id="Path_15" data-name="Path 15" d="M37,38h4.5v4.5H37Z" transform="translate(41.696 42.944)" fill="#ff017b"/>
    <path id="Path_16" data-name="Path 16" d="M49,42h4.5v4.5H49Z" transform="translate(56.677 47.938)" fill="#ff017b"/>
    <path id="Path_17" data-name="Path 17" d="M37,42h4.5v4.5H37Z" transform="translate(41.696 47.938)" fill="#ff017b"/>
    <path id="Path_18" data-name="Path 18" d="M25,42h4.5v4.5H25Z" transform="translate(26.715 47.938)" fill="#ff017b"/>
    <path id="Path_19" data-name="Path 19" d="M13,42h4.5v4.5H13Z" transform="translate(11.733 47.938)" fill="#ff017b"/>
    <path id="Path_20" data-name="Path 20" d="M41,38h4.5v4.5H41Z" transform="translate(46.69 42.944)" fill="#ff017b"/>
    <path id="Path_21" data-name="Path 21" d="M45,38h4.5v4.5H45Z" transform="translate(51.684 42.944)" fill="#ff017b"/>
    <path id="Path_22" data-name="Path 22" d="M49,38h4.5v4.5H49Z" transform="translate(56.677 42.944)" fill="#ff017b"/>
    <path id="Path_23" data-name="Path 23" d="M53,38h4.5v4.5H53Z" transform="translate(61.671 42.944)" fill="#ff017b"/>
    <path id="Path_24" data-name="Path 24" d="M9,42h4.5v4.5H9Z" transform="translate(6.739 47.938)" fill="#ff017b"/>
    <path id="Path_25" data-name="Path 25" d="M29,42h4.5v4.5H29Z" transform="translate(31.708 47.938)" fill="#ff017b"/>
    <path id="Path_26" data-name="Path 26" d="M33,42h4.5v4.5H33Z" transform="translate(36.702 47.938)" fill="#ff017b"/>
    <path id="Path_27" data-name="Path 27" d="M29,46h4.5v4.5H29Z" transform="translate(31.708 52.932)" fill="#ff017b"/>
    <path id="Path_28" data-name="Path 28" d="M33,46h4.5v4.5H33Z" transform="translate(36.702 52.932)" fill="#ff017b"/>
    <path id="Path_29" data-name="Path 29" d="M53,42h4.5v4.5H53Z" transform="translate(61.671 47.938)" fill="#ff017b"/>
    <path id="Path_30" data-name="Path 30" d="M130.162,2H40.224a6.766,6.766,0,0,0-6.745,6.745V34.917l-.09.045c-.427-.18-.854-.36-1.282-.517l-.944-3.755a2.248,2.248,0,0,0-2.181-1.709h-4.5A2.248,2.248,0,0,0,22.3,30.69l-.944,3.755c-.427.157-.854.337-1.282.517L16.75,32.984a2.248,2.248,0,0,0-2.743.337l-3.17,3.17a2.217,2.217,0,0,0-.337,2.743l1.979,3.328c-.18.427-.36.854-.517,1.282l-3.755.944A2.248,2.248,0,0,0,6.5,46.969v4.5a2.248,2.248,0,0,0,1.709,2.181l3.755.944c.157.427.337.854.517,1.282L10.5,59.2a2.217,2.217,0,0,0,.337,2.743l3.17,3.17a2.217,2.217,0,0,0,2.743.337l3.328-1.979c.427.18.854.36,1.282.517l.944,3.755a2.248,2.248,0,0,0,2.181,1.709h4.5a2.248,2.248,0,0,0,2.181-1.709l.944-3.755c.427-.157.854-.337,1.282-.517l.09.045V73.95H8.745A6.766,6.766,0,0,0,2,80.7v40.472a6.766,6.766,0,0,0,6.745,6.745h8.994v6.745a2.248,2.248,0,0,0,2.248,2.248H64.957a2.248,2.248,0,0,0,2.248-2.248v-6.745h4.5v6.745a2.248,2.248,0,0,0,2.248,2.248h44.969a2.248,2.248,0,0,0,2.248-2.248v-6.745h8.994a6.766,6.766,0,0,0,6.745-6.745V8.745A6.766,6.766,0,0,0,130.162,2ZM32.354,58.953a11.508,11.508,0,0,1-2.721,1.1,2.307,2.307,0,0,0-1.6,1.641l-.809,3.26h-.989l-.809-3.26a2.307,2.307,0,0,0-1.6-1.641,11.507,11.507,0,0,1-2.721-1.1,2.275,2.275,0,0,0-2.271,0l-2.878,1.731-.7-.7L17,57.11a2.221,2.221,0,0,0,0-2.271,11.508,11.508,0,0,1-1.1-2.721,2.307,2.307,0,0,0-1.641-1.6l-3.26-.809v-.989l3.26-.809a2.307,2.307,0,0,0,1.641-1.6A11.508,11.508,0,0,1,17,43.6a2.221,2.221,0,0,0,0-2.271l-1.731-2.878.7-.7,2.878,1.731a2.221,2.221,0,0,0,2.271,0,11.508,11.508,0,0,1,2.721-1.1,2.307,2.307,0,0,0,1.6-1.641l.809-3.26h.989l.809,3.26a2.307,2.307,0,0,0,1.6,1.641,11.507,11.507,0,0,1,2.721,1.1,2.275,2.275,0,0,0,2.271,0L37.5,37.75l.7.7-1.731,2.878a2.221,2.221,0,0,0,0,2.271,11.507,11.507,0,0,1,1.1,2.721,2.307,2.307,0,0,0,1.641,1.6l3.26.809v.989l-3.26.809a2.307,2.307,0,0,0-1.641,1.6,11.508,11.508,0,0,1-1.1,2.721,2.221,2.221,0,0,0,0,2.271L38.2,59.988l-.7.7-2.878-1.731a2.275,2.275,0,0,0-2.271,0ZM62.708,132.41H22.236V112.174a2.248,2.248,0,1,1,4.5,0v6.745a2.248,2.248,0,0,0,4.5,0V103.18a2.248,2.248,0,1,1,4.5,0v15.739a2.248,2.248,0,0,0,4.5,0V100.932a2.248,2.248,0,0,1,4.5,0v17.988a2.248,2.248,0,0,0,4.5,0V103.18a2.248,2.248,0,0,1,4.5,0v20.236a2.248,2.248,0,1,0,4.5,0v-8.994a2.248,2.248,0,1,1,4.5,0Zm53.963,0H76.2V114.423a2.248,2.248,0,0,1,4.5,0v8.994a2.248,2.248,0,1,0,4.5,0V103.18a2.248,2.248,0,1,1,4.5,0v15.739a2.248,2.248,0,0,0,4.5,0V100.932a2.248,2.248,0,0,1,4.5,0v17.988a2.248,2.248,0,0,0,4.5,0V103.18a2.248,2.248,0,1,1,4.5,0v15.739a2.248,2.248,0,0,0,4.5,0v-6.745a2.248,2.248,0,1,1,4.5,0Zm15.739-11.242a2.248,2.248,0,0,1-2.248,2.248h-8.994V112.174a6.745,6.745,0,0,0-8.994-6.363V103.18a6.766,6.766,0,0,0-6.745-6.745,6.6,6.6,0,0,0-3.305.877,6.745,6.745,0,0,0-11.377,0,6.6,6.6,0,0,0-3.305-.877A6.766,6.766,0,0,0,80.7,103.18v4.879a6.745,6.745,0,0,0-8.994,6.363v8.994h-4.5v-8.994a6.745,6.745,0,0,0-8.994-6.363V103.18a6.766,6.766,0,0,0-6.745-6.745,6.6,6.6,0,0,0-3.305.877,6.745,6.745,0,0,0-11.377,0,6.6,6.6,0,0,0-3.305-.877,6.766,6.766,0,0,0-6.745,6.745v2.631a6.745,6.745,0,0,0-8.994,6.363v11.242H8.745A2.248,2.248,0,0,1,6.5,121.168V80.7a2.248,2.248,0,0,1,2.248-2.248H130.162A2.248,2.248,0,0,1,132.41,80.7Zm0-46.813a6.745,6.745,0,0,0-2.248-.4H37.975V65.744a2.217,2.217,0,0,0,1.484-.63l3.17-3.17a2.217,2.217,0,0,0,.337-2.743l-1.979-3.328c.18-.427.36-.854.517-1.282l3.755-.944a2.248,2.248,0,0,0,1.709-2.181v-4.5a2.248,2.248,0,0,0-1.709-2.181l-3.755-.944c-.157-.427-.337-.854-.517-1.282l1.979-3.328a2.217,2.217,0,0,0-.337-2.743l-3.17-3.17a2.217,2.217,0,0,0-1.484-.63V24.485H132.41Zm0-54.368H37.975V8.745A2.248,2.248,0,0,1,40.224,6.5h89.938a2.248,2.248,0,0,1,2.248,2.248Z" transform="translate(-2 -2)" fill="#ff017b"/>
    <path id="Path_31" data-name="Path 31" d="M20,6h4.5v4.5H20Z" transform="translate(20.472 2.994)" fill="#ff017b"/>
    <path id="Path_32" data-name="Path 32" d="M24,6h4.5v4.5H24Z" transform="translate(25.466 2.994)" fill="#ff017b"/>
    <path id="Path_33" data-name="Path 33" d="M28,6h4.5v4.5H28Z" transform="translate(30.46 2.994)" fill="#ff017b"/>
    <path id="Path_34" data-name="Path 34" d="M17.994,19a8.994,8.994,0,1,0,8.994,8.994A8.994,8.994,0,0,0,17.994,19Zm0,13.491a4.5,4.5,0,1,1,4.5-4.5A4.5,4.5,0,0,1,17.994,32.491Z" transform="translate(6.739 19.224)" fill="#ff017b"/>
    <path id="Path_35" data-name="Path 35" d="M70.969,15H43.988A18.008,18.008,0,0,0,26,32.988V44.23a6.745,6.745,0,0,0,6.745,6.745h6.745a2.248,2.248,0,0,0,1.394-.483L51.05,42.465a2.248,2.248,0,0,1,1.394-.483H62.513a2.248,2.248,0,0,1,1.394.483l10.165,8.027a2.248,2.248,0,0,0,1.394.483h6.745a6.745,6.745,0,0,0,6.745-6.745V32.988A18.008,18.008,0,0,0,70.969,15ZM84.46,44.23a2.248,2.248,0,0,1-2.248,2.248H76.246L66.7,38.937a6.761,6.761,0,0,0-4.184-1.452H52.444a6.761,6.761,0,0,0-4.18,1.453L38.71,46.478H32.745A2.248,2.248,0,0,1,30.5,44.23V32.988A13.5,13.5,0,0,1,43.988,19.5H70.969A13.5,13.5,0,0,1,84.46,32.988Z" transform="translate(27.963 14.23)" fill="#ff017b"/>
    <path id="Path_36" data-name="Path 36" d="M38.994,19H34.5v4.5H30v4.5h4.5v4.5h4.5v-4.5h4.5V23.5h-4.5Z" transform="translate(32.957 19.224)" fill="#ff017b"/>
    <path id="Path_37" data-name="Path 37" d="M46,19h4.5v4.5H46Z" transform="translate(52.932 19.224)" fill="#ff017b"/>
    <path id="Path_38" data-name="Path 38" d="M48,21h4.5v4.5H48Z" transform="translate(55.429 21.721)" fill="#ff017b"/>
    <path id="Path_39" data-name="Path 39" d="M46,23h4.5v4.5H46Z" transform="translate(52.932 24.217)" fill="#ff017b"/>
    <path id="Path_40" data-name="Path 40" d="M44,21h4.5v4.5H44Z" transform="translate(50.435 21.721)" fill="#ff017b"/>
    <path id="Path_41" data-name="Path 41" d="M37,19h4.5v4.5H37Z" transform="translate(41.696 19.224)" fill="#ff017b"/>
    <path id="Path_42" data-name="Path 42" d="M41,19h4.5v4.5H41Z" transform="translate(46.69 19.224)" fill="#ff017b"/>
  </g>
</svg>
