<svg xmlns="http://www.w3.org/2000/svg" width="134.907" height="135" viewBox="0 0 134.907 135">
  <g id="Computer_Game-PC-Gaming-Keyboard-Fighting_Game" data-name="Computer Game-PC-Gaming-Keyboard-Fighting Game" transform="translate(0)">
    <path id="Path_43" data-name="Path 43" d="M93.665,50.807A2.248,2.248,0,0,0,91.938,50H15.491a2.248,2.248,0,0,0-1.727.807L2.522,64.3A2.248,2.248,0,0,0,2,65.739v8.994a2.248,2.248,0,0,0,2.248,2.248H103.18a2.248,2.248,0,0,0,2.248-2.248V65.739a2.248,2.248,0,0,0-.522-1.441ZM16.543,54.5H90.886l7.494,8.994H9.049ZM6.5,72.484v-4.5h94.435v4.5Z" transform="translate(-2 58.018)" fill="#ff017b"/>
    <path id="Path_44" data-name="Path 44" d="M9,53h4.5v4.5H9Z" transform="translate(6.739 61.764)" fill="#ff017b"/>
    <path id="Path_45" data-name="Path 45" d="M13,53h4.5v4.5H13Z" transform="translate(11.733 61.764)" fill="#ff017b"/>
    <path id="Path_46" data-name="Path 46" d="M35,53h4.5v4.5H35Z" transform="translate(39.199 61.764)" fill="#ff017b"/>
    <path id="Path_47" data-name="Path 47" d="M17,53H52.975v4.5H17Z" transform="translate(16.727 61.764)" fill="#ff017b"/>
    <path id="Path_48" data-name="Path 48" d="M39,53h4.5v4.5H39Z" transform="translate(44.192 61.764)" fill="#ff017b"/>
    <path id="Path_49" data-name="Path 49" d="M40,33h4.5v4.5H40Z" transform="translate(45.441 36.795)" fill="#ff017b"/>
    <path id="Path_50" data-name="Path 50" d="M134.659,20.039h-29.23V17.791a6.766,6.766,0,0,0-6.745-6.745H77.278l1.574-6.3a2.215,2.215,0,0,0-.585-2.136,2.271,2.271,0,0,0-2.136-.585L63.428,5.2a2.338,2.338,0,0,0-1.147.7l-4.587,5.149h-7.96L45.148,5.9a2.273,2.273,0,0,0-1.124-.7L31.3,2.029A2.235,2.235,0,0,0,28.577,4.75l1.574,6.3H8.745A6.766,6.766,0,0,0,2,17.791V76.25A6.766,6.766,0,0,0,8.745,83H40.224V91.99H31.23a2.248,2.248,0,0,0-2.248,2.248v8.994a2.248,2.248,0,0,0,2.248,2.248H76.2a2.248,2.248,0,0,0,2.248-2.248V94.238A2.248,2.248,0,0,0,76.2,91.99H67.205V83H82.944v20.236a2.248,2.248,0,0,0,2.248,2.248h49.466a2.248,2.248,0,0,0,2.248-2.248V22.288A2.248,2.248,0,0,0,134.659,20.039ZM65.181,9.4,73.591,7.29l-2.114,8.432-9.826,8.746-4.924-5.554Zm-22.934,0L65.811,35.913l-.7.72-2.653,2.631L35.952,15.7,33.838,7.29ZM65.721,48.729l-3.17-3.193L72.084,36l3.193,3.17Zm15.9,3.17-3.17,3.193-6.363-6.363,3.193-3.193ZM32.152,39.173,35.345,36l9.533,9.533-3.17,3.193Zm3.193,9.556-6.363,6.363L25.811,51.9l6.341-6.363Zm6.273-12.816,4.542-5.1,4.182,3.71-5.374,4.767ZM6.5,17.791a2.248,2.248,0,0,1,2.248-2.248H31.275l.472,1.934a2.273,2.273,0,0,0,.7,1.124l10.343,9.219-4.362,4.9-1.484-1.484a2.266,2.266,0,0,0-3.193,0L27.385,37.6a2.248,2.248,0,0,0,0,3.17l1.6,1.6L21.022,50.3a2.365,2.365,0,0,0-.652,1.6,2.323,2.323,0,0,0,.652,1.6l6.363,6.363a2.28,2.28,0,0,0,3.193,0l7.937-7.96,1.6,1.6a2.226,2.226,0,0,0,1.6.652,2.174,2.174,0,0,0,1.574-.652l6.363-6.363a2.248,2.248,0,0,0,0-3.17l-1.484-1.506,5.554-4.924,5.554,4.924-1.484,1.506a2.248,2.248,0,0,0,0,3.17L64.147,53.5a2.174,2.174,0,0,0,1.574.652,2.226,2.226,0,0,0,1.6-.652l1.6-1.6,7.937,7.96a2.28,2.28,0,0,0,3.193,0L86.407,53.5a2.323,2.323,0,0,0,.652-1.6,2.365,2.365,0,0,0-.652-1.6l-7.96-7.937,1.6-1.6a2.248,2.248,0,0,0,0-3.17l-6.363-6.363a2.266,2.266,0,0,0-3.193,0L69,32.72l-4.362-4.9,10.343-9.2a2.338,2.338,0,0,0,.7-1.147l.472-1.934H98.683a2.248,2.248,0,0,1,2.248,2.248V65.008H6.5Zm67.453,78.7v4.5H33.478v-4.5Zm-29.23-4.5V83H62.708V91.99ZM8.745,78.5A2.248,2.248,0,0,1,6.5,76.25V69.505h94.435V76.25A2.248,2.248,0,0,1,98.683,78.5ZM132.41,100.983H87.441V83H132.41Zm0-22.484H105.024a6.745,6.745,0,0,0,.4-2.248V72.743a8.782,8.782,0,0,0,4.5,1.259,8.994,8.994,0,0,0,8.679-6.745H132.41ZM105.429,65.008a4.5,4.5,0,1,1,4.5,4.5A4.5,4.5,0,0,1,105.429,65.008ZM132.41,62.76H118.6a8.994,8.994,0,0,0-8.679-6.745,8.783,8.783,0,0,0-4.5,1.259V24.536H132.41Z" transform="translate(-2 -1.959)" fill="#ff017b"/>
    <path id="Path_51" data-name="Path 51" d="M56,16h4.5v8.994H56Z" transform="translate(65.416 15.571)" fill="#ff017b"/>
    <path id="Path_52" data-name="Path 52" d="M52,16h4.5v8.994H52Z" transform="translate(60.422 15.571)" fill="#ff017b"/>
    <path id="Path_53" data-name="Path 53" d="M70.236,54H56.745A6.745,6.745,0,0,0,50,60.745v8.994a2.248,2.248,0,0,0,2.248,2.248H74.733a2.248,2.248,0,0,0,2.248-2.248V60.745A6.745,6.745,0,0,0,70.236,54Zm2.248,13.491H54.5V60.745A2.248,2.248,0,0,1,56.745,58.5H70.236a2.248,2.248,0,0,1,2.248,2.248Z" transform="translate(57.925 63.012)" fill="#ff017b"/>
  </g>
</svg>
