<svg xmlns="http://www.w3.org/2000/svg" width="107.926" height="134.913" viewBox="0 0 107.926 134.913">
  <g id="Fightinng_Game-Esport-Gaming-Shield-Online" data-name="Fightinng Game-Esport-Gaming-Shield-Online" transform="translate(0)">
    <path id="Path_54" data-name="Path 54" d="M114.577,24.667,62.862,2.183a2.273,2.273,0,0,0-1.8,0L9.349,24.667A2.273,2.273,0,0,0,8,26.736V60.171a69.443,69.443,0,0,0,25.318,53.738l27.206,22.484a2.26,2.26,0,0,0,2.878,0l27.206-22.485a69.443,69.443,0,0,0,25.318-53.738V26.736a2.273,2.273,0,0,0-1.349-2.069Zm-3.148,35.5a65.032,65.032,0,0,1-23.676,50.275l-25.79,21.293-25.79-21.293A65.032,65.032,0,0,1,12.5,60.171V28.22L61.963,6.7,111.429,28.22Z" transform="translate(-8 -1.998)" fill="#ff017b"/>
    <path id="Path_55" data-name="Path 55" d="M94.944,27.408A2.273,2.273,0,0,0,93.6,25.339l-5.823-2.518.112-1.079a2.21,2.21,0,0,0-2.473-2.473l-4.632.517L55.371,8.723a2.273,2.273,0,0,0-1.8,0L28.165,19.785l-4.632-.517a2.332,2.332,0,0,0-1.844.63,2.248,2.248,0,0,0-.63,1.844l.112,1.079-5.823,2.518A2.273,2.273,0,0,0,14,27.408v24.6a56.661,56.661,0,0,0,6.116,25.5l-2.833,2.811a2.365,2.365,0,0,0-.652,1.6,2.323,2.323,0,0,0,.652,1.6l6.363,6.363a2.28,2.28,0,0,0,3.193,0l.967-.989a54.148,54.148,0,0,0,6.588,6.453l18.64,15.4a2.26,2.26,0,0,0,2.878,0l18.64-15.4a54.146,54.146,0,0,0,6.588-6.453l.967.989a2.28,2.28,0,0,0,3.193,0l6.363-6.363a2.266,2.266,0,0,0,0-3.193L88.828,77.5a56.661,56.661,0,0,0,6.116-25.5ZM83.117,24.035l-1.192,10.7L65.287,49.982,62.926,47.4,79.295,31.05,76.1,27.857,59.891,44.091,57.53,41.505,72.437,25.227ZM54.472,13.242l17.336,7.532-.7.09a2.3,2.3,0,0,0-1.417.7L54.472,38.178,39.25,21.562a2.093,2.093,0,0,0-1.417-.7l-.7-.09ZM36.507,25.227,69.469,61.179l-1.664,1.664L32.82,27.857l-3.17,3.17L64.613,66.014l-1.641,1.664L27.019,34.715l-1.192-10.68ZM77.339,59.65l3.193,3.193L64.613,78.74l-3.17-3.193ZM47.5,75.547l-3.17,3.193-15.919-15.9,3.193-3.193ZM39.475,61.179l4.452-4.857L45.861,58.1l-4.722,4.744Zm6.5,6.5-1.664-1.664,4.879-4.879,1.956,1.8ZM18.5,52.006V28.892L21.69,27.5l.944,8.567a2.217,2.217,0,0,0,.72,1.394L40.622,53.287l-4.317,4.7-3.1-3.1a2.354,2.354,0,0,0-3.193,0l-6.363,6.363a2.323,2.323,0,0,0-.652,1.6,2.269,2.269,0,0,0,.652,1.574l4.767,4.767-4.947,4.969A51.838,51.838,0,0,1,18.5,52.006Zm6.745,33.1-3.17-3.193,9.533-9.533,3.17,3.17Zm46.43,6.768-17.2,14.21-17.2-14.21a50.753,50.753,0,0,1-6.228-6.206l6.925-6.925,4.767,4.767a2.248,2.248,0,0,0,3.17,0l6.363-6.363a2.248,2.248,0,0,0,0-3.17l-3.1-3.125,5.306-4.857,5.306,4.857-3.1,3.125a2.248,2.248,0,0,0,0,3.17l6.363,6.363a2.248,2.248,0,0,0,3.17,0l4.767-4.767L77.9,85.665a50.753,50.753,0,0,1-6.228,6.206ZM83.7,85.1l-9.533-9.556,3.17-3.17,9.533,9.533Zm6.745-33.1a51.839,51.839,0,0,1-4.969,22.148l-4.946-4.969L85.3,64.417a2.248,2.248,0,0,0,0-3.17l-6.363-6.363a2.226,2.226,0,0,0-1.6-.652,2.264,2.264,0,0,0-1.6.652l-3.1,3.1-4.317-4.7L85.591,37.481a2.3,2.3,0,0,0,.7-1.417l.967-8.567,3.193,1.394Z" transform="translate(-0.509 6.167)" fill="#ff017b"/>
  </g>
</svg>
