<svg id="instagram" xmlns="http://www.w3.org/2000/svg" width="35.9" height="35.9" viewBox="0 0 35.9 35.9">
  <path id="Path_56" data-name="Path 56" d="M213.872,210.436A3.436,3.436,0,1,1,210.436,207,3.436,3.436,0,0,1,213.872,210.436Zm0,0" transform="translate(-192.486 -192.486)" fill="#aaa"/>
  <path id="Path_57" data-name="Path 57" d="M151.97,137.859a3.413,3.413,0,0,0-1.956-1.956,5.7,5.7,0,0,0-1.914-.355c-1.087-.05-1.413-.06-4.165-.06s-3.078.01-4.165.06a5.706,5.706,0,0,0-1.914.355,3.415,3.415,0,0,0-1.956,1.956,5.705,5.705,0,0,0-.355,1.914c-.05,1.087-.06,1.413-.06,4.165s.011,3.078.06,4.165a5.7,5.7,0,0,0,.355,1.914,3.413,3.413,0,0,0,1.956,1.956,5.7,5.7,0,0,0,1.914.355c1.087.05,1.412.06,4.165.06s3.079-.01,4.165-.06a5.7,5.7,0,0,0,1.914-.355,3.413,3.413,0,0,0,1.956-1.956,5.708,5.708,0,0,0,.355-1.914c.05-1.087.06-1.413.06-4.165s-.01-3.078-.06-4.165A5.7,5.7,0,0,0,151.97,137.859Zm-8.035,11.372a5.293,5.293,0,1,1,5.293-5.293A5.293,5.293,0,0,1,143.935,149.231Zm5.5-9.558a1.237,1.237,0,1,1,1.237-1.237A1.237,1.237,0,0,1,149.437,139.673Zm0,0" transform="translate(-125.984 -125.988)" fill="#aaa"/>
  <path id="Path_58" data-name="Path 58" d="M17.95,0A17.95,17.95,0,1,0,35.9,17.95,17.952,17.952,0,0,0,17.95,0ZM28.2,22.2a7.562,7.562,0,0,1-.479,2.5A5.27,5.27,0,0,1,24.7,27.716a7.567,7.567,0,0,1-2.5.479c-1.1.05-1.45.062-4.25.062s-3.15-.012-4.25-.062a7.567,7.567,0,0,1-2.5-.479A5.27,5.27,0,0,1,8.184,24.7a7.56,7.56,0,0,1-.479-2.5c-.051-1.1-.062-1.451-.062-4.25s.012-3.15.062-4.25a7.563,7.563,0,0,1,.479-2.5A5.274,5.274,0,0,1,11.2,8.184a7.569,7.569,0,0,1,2.5-.479c1.1-.05,1.45-.062,4.25-.062s3.15.012,4.25.062a7.571,7.571,0,0,1,2.5.478A5.272,5.272,0,0,1,27.716,11.2a7.561,7.561,0,0,1,.479,2.5c.05,1.1.062,1.45.062,4.25S28.246,21.1,28.2,22.2Zm0,0" fill="#aaa"/>
</svg>
